Normalized EMG Linear Envelopes
nRows=230
nColumns=4

endheader
time	 med_gas_r	  soleus_r	 tib_ant_r	
6.71976	  0.033841	  0.039934	  0.004199	
6.75302	  0.031868	  0.039223	  0.004191	
6.78629	  0.030041	  0.038738	  0.004190	
6.81956	  0.028508	  0.038562	  0.004202	
6.85282	  0.027296	  0.038700	  0.004227	
6.88609	  0.026333	  0.039123	  0.004259	
6.91935	  0.025517	  0.039787	  0.004282	
6.95262	  0.024803	  0.040616	  0.004284	
6.98589	  0.024228	  0.041466	  0.004263	
7.01915	  0.023869	  0.042150	  0.004234	
7.05242	  0.023770	  0.042551	  0.004221	
7.08569	  0.023894	  0.042735	  0.004251	
7.11895	  0.024137	  0.042974	  0.004332	
7.15222	  0.024401	  0.043623	  0.004454	
7.18548	  0.024664	  0.044953	  0.004595	
7.21875	  0.024984	  0.047068	  0.004729	
7.25202	  0.025427	  0.049917	  0.004833	
7.28528	  0.025981	  0.053326	  0.004882	
7.31855	  0.026536	  0.056980	  0.004855	
7.35181	  0.026955	  0.060392	  0.004745	
7.38508	  0.027171	  0.062979	  0.004566	
7.41835	  0.027218	  0.064261	  0.004354	
7.45161	  0.027179	  0.064072	  0.004156	
7.48488	  0.027107	  0.062639	  0.004006	
7.51815	  0.026996	  0.060451	  0.003917	
7.55141	  0.026838	  0.058048	  0.003886	
7.58468	  0.026687	  0.055870	  0.003899	
7.61794	  0.026672	  0.054208	  0.003945	
7.65121	  0.026944	  0.053182	  0.004019	
7.68448	  0.027579	  0.052697	  0.004115	
7.71774	  0.028508	  0.052434	  0.004222	
7.75101	  0.029529	  0.051962	  0.004325	
7.78427	  0.030397	  0.050954	  0.004411	
7.81754	  0.030945	  0.049385	  0.004475	
7.85081	  0.031147	  0.047549	  0.004522	
7.88407	  0.031080	  0.045899	  0.004560	
7.91734	  0.030837	  0.044808	  0.004588	
7.9506	  0.030457	  0.044411	  0.004597	
7.98387	  0.029951	  0.044606	  0.004576	
8.01714	  0.029366	  0.045160	  0.004526	
8.0504	  0.028813	  0.045814	  0.004466	
8.08367	  0.028430	  0.046345	  0.004423	
8.11694	  0.028294	  0.046582	  0.004420	
8.1502	  0.028381	  0.046424	  0.004459	
8.18347	  0.028599	  0.045860	  0.004520	
8.21673	  0.028852	  0.044996	  0.004571	
8.25	  0.029089	  0.044035	  0.004589	
8.28327	  0.029287	  0.043212	  0.004572	
8.31653	  0.029406	  0.042695	  0.004531	
8.3498	  0.029369	  0.042534	  0.004477	
8.38306	  0.029098	  0.042673	  0.004411	
8.41633	  0.028584	  0.043022	  0.004323	
8.4496	  0.027915	  0.043526	  0.004206	
8.48286	  0.027248	  0.044191	  0.004059	
8.51613	  0.026725	  0.045082	  0.003902	
8.5494	  0.026404	  0.046284	  0.003763	
8.58266	  0.026263	  0.047853	  0.003673	
8.61593	  0.026256	  0.049764	  0.003657	
8.64919	  0.026369	  0.051914	  0.003730	
8.68246	  0.026628	  0.054184	  0.003889	
8.71573	  0.027063	  0.056529	  0.004119	
8.74899	  0.027687	  0.059043	  0.004396	
8.78226	  0.028527	  0.061966	  0.004699	
8.81552	  0.029723	  0.065646	  0.005016	
8.84879	  0.031601	  0.070454	  0.005349	
8.88206	  0.034675	  0.076660	  0.005712	
8.91532	  0.039528	  0.084340	  0.006117	
8.94859	  0.046654	  0.093376	  0.006575	
8.98185	  0.056336	  0.103511	  0.007094	
9.01512	  0.068608	  0.114352	  0.007674	
9.04839	  0.083229	  0.125325	  0.008304	
9.08165	  0.099632	  0.135733	  0.008954	
9.11492	  0.117039	  0.145057	  0.009580	
9.14819	  0.134931	  0.153391	  0.010141	
9.18145	  0.153735	  0.161635	  0.010616	
9.21472	  0.175045	  0.171191	  0.011006	
9.24798	  0.200783	  0.183296	  0.011328	
9.28125	  0.231600	  0.198396	  0.011601	
9.31452	  0.265733	  0.215933	  0.011844	
9.34778	  0.299553	  0.234610	  0.012072	
9.38105	  0.329773	  0.252991	  0.012306	
9.41431	  0.355832	  0.270229	  0.012572	
9.44758	  0.380555	  0.286573	  0.012900	
9.48085	  0.408401	  0.303273	  0.013322	
9.51411	  0.442656	  0.321775	  0.013850	
9.54738	  0.483774	  0.342783	  0.014478	
9.58065	  0.530002	  0.365947	  0.015185	
9.61391	  0.579370	  0.390362	  0.015959	
9.64718	  0.631077	  0.415260	  0.016804	
9.68044	  0.685030	  0.440169	  0.017751	
9.71371	  0.740076	  0.464572	  0.018835	
9.74698	  0.792692	  0.487724	  0.020083	
9.78024	  0.837475	  0.509074	  0.021482	
9.81351	  0.869205	  0.528852	  0.022952	
9.84677	  0.884985	  0.548087	  0.024332	
9.88004	  0.885102	  0.568048	  0.025423	
9.91331	  0.872407	  0.589714	  0.026071	
9.94657	  0.851047	  0.613539	  0.026245	
9.97984	  0.825593	  0.638958	  0.026062	
10.0131	  0.800956	  0.663646	  0.025737	
10.0464	  0.782418	  0.683686	  0.025511	
10.0796	  0.774608	  0.695551	  0.025580	
10.1129	  0.779269	  0.698652	  0.026039	
10.1462	  0.793452	  0.695933	  0.026843	
10.1794	  0.810166	  0.691795	  0.027803	
10.2127	  0.821544	  0.689532	  0.028631	
10.246	  0.822386	  0.690779	  0.029070	
10.2792	  0.811869	  0.696716	  0.029021	
10.3125	  0.793005	  0.708537	  0.028586	
10.3458	  0.770736	  0.725984	  0.028013	
10.379	  0.749657	  0.745763	  0.027582	
10.4123	  0.732020	  0.762400	  0.027509	
10.4456	  0.716707	  0.771450	  0.027898	
10.4788	  0.699808	  0.772447	  0.028719	
10.5121	  0.676680	  0.769253	  0.029819	
10.5454	  0.644466	  0.767863	  0.030964	
10.5786	  0.603544	  0.773378	  0.031943	
10.6119	  0.557053	  0.787856	  0.032649	
10.6452	  0.509102	  0.809819	  0.033117	
10.6784	  0.463174	  0.835319	  0.033475	
10.7117	  0.421589	  0.859868	  0.033875	
10.745	  0.385682	  0.880178	  0.034424	
10.7782	  0.355979	  0.894864	  0.035140	
10.8115	  0.332285	  0.904090	  0.035939	
10.8448	  0.313956	  0.908941	  0.036674	
10.878	  0.300301	  0.910991	  0.037226	
10.9113	  0.290803	  0.911710	  0.037543	
10.9446	  0.285008	  0.911548	  0.037622	
10.9778	  0.282337	  0.909582	  0.037436	
11.0111	  0.282029	  0.904518	  0.036912	
11.0444	  0.283215	  0.896155	  0.036007	
11.0776	  0.284944	  0.885592	  0.034790	
11.1109	  0.286162	  0.873971	  0.033461	
11.1442	  0.285828	  0.861503	  0.032259	
11.1774	  0.283265	  0.848106	  0.031337	
11.2107	  0.278529	  0.834823	  0.030718	
11.244	  0.272332	  0.824055	  0.030358	
11.2772	  0.265468	  0.817929	  0.030271	
11.3105	  0.258247	  0.816267	  0.030594	
11.3437	  0.250564	  0.816278	  0.031527	
11.377	  0.242571	  0.814375	  0.033187	
11.4103	  0.235193	  0.808285	  0.035471	
11.4435	  0.229831	  0.797488	  0.038047	
11.4768	  0.227435	  0.782057	  0.040478	
11.5101	  0.227804	  0.761796	  0.042406	
11.5433	  0.229765	  0.736985	  0.043668	
11.5766	  0.232029	  0.709982	  0.044291	
11.6099	  0.233922	  0.685807	  0.044410	
11.6431	  0.235337	  0.670629	  0.044212	
11.6764	  0.236107	  0.668729	  0.043893	
11.7097	  0.235500	  0.679663	  0.043576	
11.7429	  0.232397	  0.697524	  0.043204	
11.7762	  0.226062	  0.713125	  0.042523	
11.8095	  0.216867	  0.718087	  0.041245	
11.8427	  0.206381	  0.708291	  0.039286	
11.876	  0.196738	  0.684567	  0.036874	
11.9093	  0.189725	  0.650817	  0.034421	
11.9425	  0.186121	  0.611657	  0.032269	
11.9758	  0.185561	  0.571179	  0.030535	
12.0091	  0.186851	  0.532767	  0.029149	
12.0423	  0.188531	  0.499063	  0.028021	
12.0756	  0.189453	  0.471827	  0.027156	
12.1089	  0.189150	  0.451998	  0.026633	
12.1421	  0.187807	  0.440037	  0.026499	
12.1754	  0.185929	  0.436133	  0.026690	
12.2087	  0.183997	  0.439890	  0.027054	
12.2419	  0.182375	  0.449749	  0.027466	
12.2752	  0.181362	  0.462827	  0.027924	
12.3085	  0.181112	  0.475656	  0.028562	
12.3417	  0.181384	  0.485535	  0.029531	
12.375	  0.181433	  0.491579	  0.030867	
12.4083	  0.180333	  0.494737	  0.032431	
12.4415	  0.177520	  0.496696	  0.034007	
12.4748	  0.173064	  0.498222	  0.035459	
12.5081	  0.167416	  0.497770	  0.036790	
12.5413	  0.160964	  0.491274	  0.038048	
12.5746	  0.153862	  0.473771	  0.039169	
12.6079	  0.146234	  0.442322	  0.039957	
12.6411	  0.138442	  0.398346	  0.040203	
12.6744	  0.131121	  0.347530	  0.039817	
12.7077	  0.124955	  0.297326	  0.038835	
12.7409	  0.120373	  0.253847	  0.037368	
12.7742	  0.117310	  0.220075	  0.035600	
12.8075	  0.115159	  0.195943	  0.033820	
12.8407	  0.113020	  0.179646	  0.032354	
12.874	  0.110208	  0.169113	  0.031370	
12.9073	  0.106672	  0.162777	  0.030743	
12.9405	  0.102930	  0.159396	  0.030123	
12.9738	  0.099508	  0.157504	  0.029166	
13.0071	  0.096408	  0.155382	  0.027706	
13.0403	  0.093170	  0.151845	  0.025748	
13.0736	  0.089492	  0.147081	  0.023372	
13.1069	  0.085768	  0.142545	  0.020696	
13.1401	  0.082944	  0.139845	  0.017901	
13.1734	  0.081766	  0.139610	  0.015229	
13.2067	  0.082090	  0.141368	  0.012902	
13.2399	  0.082904	  0.144291	  0.011055	
13.2732	  0.083050	  0.147817	  0.009704	
13.3065	  0.082051	  0.151448	  0.008790	
13.3397	  0.080335	  0.154178	  0.008213	
13.373	  0.078724	  0.154463	  0.007859	
13.4062	  0.077659	  0.151043	  0.007623	
13.4395	  0.076820	  0.143919	  0.007425	
13.4728	  0.075454	  0.134556	  0.007228	
13.506	  0.073129	  0.125144	  0.007027	
13.5393	  0.070296	  0.117569	  0.006826	
13.5726	  0.068131	  0.112812	  0.006622	
13.6058	  0.067706	  0.110961	  0.006409	
13.6391	  0.069105	  0.111461	  0.006189	
13.6724	  0.071234	  0.113302	  0.005971	
13.7056	  0.072545	  0.115148	  0.005767	
13.7389	  0.072143	  0.115632	  0.005587	
13.7722	  0.070386	  0.113874	  0.005435	
13.8054	  0.068476	  0.109876	  0.005315	
13.8387	  0.067420	  0.104438	  0.005233	
13.872	  0.067261	  0.098553	  0.005200	
13.9052	  0.067202	  0.092769	  0.005227	
13.9385	  0.066444	  0.087052	  0.005320	
13.9718	  0.064955	  0.081183	  0.005477	
14.005	  0.063504	  0.075248	  0.005686	
14.0383	  0.062971	  0.069781	  0.005936	
14.0716	  0.063600	  0.065548	  0.006209	
14.1048	  0.064851	  0.063260	  0.006467	
14.1381	  0.066016	  0.063441	  0.006647	
14.1714	  0.067069	  0.066448	  0.006680	
14.2046	  0.069021	  0.072533	  0.006526	
14.2379	  0.073432	  0.081818	  0.006199	
14.2712	  0.081420	  0.094108	  0.005755	
14.3044	  0.092893	  0.108674	  0.005262	
14.3377	  0.106484	  0.124203	  0.004765	
